<?xml version="1.0" encoding="utf-8"?>
<svg version="1.1" id="Layer_1" xmlns="http://www.w3.org/2000/svg" xmlns:xlink="http://www.w3.org/1999/xlink" x="0px" y="0px"
	 viewBox="0 0 1024 1024" style="enable-background:new 0 0 1024 1024;" xml:space="preserve">
<style type="text/css">
	.st1{fill:url(#SVGID_1_);}
</style>
<linearGradient id="SVGID_1_" gradientUnits="userSpaceOnUse" x1="512" y1="829.2909" x2="512" y2="244.0807" gradientTransform="matrix(1 0 0 -1 0 1024)">
	<stop  offset="0.4749" style="stop-color:#FBBD00"/>
	<stop  offset="1" style="stop-color:#F29B00"/>
</linearGradient>
<path class="st1" d="M772,310.8c-4.6-27.8-14.3-53.5-27.8-76.5c-0.7-1.6-1.2-3.2-2-4.8c31.1-6.8,54.1-8.5,54.8-8.5l-3.6-57.3
	c-3.6,0.2-44.1,3.1-93.2,17.2c-39.4-34.8-91.1-55.7-147.3-55.7c-55.4,0-106.5,20.5-145.8,54.7c-47.3-13.2-85.8-16-89.4-16.2
	l-3.6,57.3c12.2,0.8,30.4,3.2,51.1,7.6c-17.1,27-28.8,57.9-32.9,91.3l56.9,7c3.8-30.7,16-58.5,34.1-81.4
	c42.2,16,83.5,41.2,103.5,79.4l8,15.2l41.2,0.4l8.1-15.5c20-38.1,59.5-62.3,99.2-77.8c3.7,4.8,7.2,9.7,10.4,14.9
	c26.3,58.3,40.1,120.4,40.1,185.1c0,161.8-66.5,283.4-182.2,349.2c37.8-48.8,60.6-109.9,60.6-176.2c0-33.8-6.3-67.8-18.2-99.6
	c-6.1-19.1-13.6-35.1-23.5-49.7c-35.2-51.2-93.2-81.9-155.2-81.9C311.5,389,227,473.4,227,577.2v242.5l34.1-0.8
	c103.6,0,197.9-56.5,234.6-140.6l-52.6-23c-25,57.2-86.9,97.6-158.8,105v-38.2c49.5-6.6,96-36.8,123-83l-49.6-28.9
	c-16.6,28.4-44,47.5-73.4,53.6v-86.6c0-72.2,58.7-130.9,130.9-130.9c43.1,0,83.4,21.3,108.3,57.4c6.2,9.2,11.4,20.3,16.2,35.5
	c10,26.7,15.1,53.9,15.1,80.9c0,127.5-103.7,231.2-231.3,231.2v57.4c284.1,0,467.6-181.2,467.6-461.6
	C791.3,400.3,784.3,354.9,772,310.8L772,310.8z M555.6,265.6c-22.9-27-52.6-46.8-83.2-61.4c24-13.5,51.4-21.5,80.5-21.5
	c30.4,0,59.1,8.2,83.7,22.6C606.7,219.8,577.9,239.3,555.6,265.6z"/>
</svg>
